
<svg xmlns="http://www.w3.org/2000/svg" fill="#f1f1f1" viewBox="0 0 24 24">
    <path d="M12 2.2c3.2 0 3.6 0 4.8.1 1.2.1 2 .2 2.4.4.5.2.8.4 1.2.8.4.4.6.7.8 1.2.2.4.3 1.2.4 2.4.1 1.2.1 1.6.1 4.8s0 3.6-.1 4.8c-.1 1.2-.2 2-.4 2.4-.2.5-.4.8-.8 1.2-.4.4-.7.6-1.2.8-.4.2-1.2.3-2.4.4-1.2.1-1.6.1-4.8.1s-3.6 0-4.8-.1c-1.2-.1-2-.2-2.4-.4-.5-.2-.8-.4-1.2-.8-.4-.4-.6-.7-.8-1.2-.2-.4-.3-1.2-.4-2.4-.1-1.2-.1-1.6-.1-4.8s0-3.6.1-4.8c.1-1.2.2-2 .4-2.4.2-.5.4-.8.8-1.2.4-.4.7-.6 1.2-.8.4-.2 1.2-.3 2.4-.4C8.4 2.2 8.8 2.2 12 2.2m0-2.2C8.7 0 8.3 0 7.1.1 5.9.2 4.9.4 4.1.7 3.3 1 2.6 1.4 2 2c-.6.6-1 1.3-1.3 2.1-.3.8-.5 1.8-.6 3C0 8.3 0 8.7 0 12s0 3.7.1 4.9c.1 1.2.3 2.2.6 3 .3.8.7 1.5 1.3 2.1.6.6 1.3 1 2.1 1.3.8.3 1.8.5 3 .6 1.2.1 1.6.1 4.9.1s3.7 0 4.9-.1c1.2-.1 2.2-.3 3-.6.8-.3 1.5-.7 2.1-1.3.6-.6 1-1.3 1.3-2.1.3-.8.5-1.8.6-3 .1-1.2.1-1.6.1-4.9s0-3.7-.1-4.9c-.1-1.2-.3-2.2-.6-3-.3-.8-.7-1.5-1.3-2.1-.6-.6-1.3-1-2.1-1.3-.8-.3-1.8-.5-3-.6C15.7 0 15.3 0 12 0zm0 5.8a6.2 6.2 0 1 0 0 12.4 6.2 6.2 0 0 0 0-12.4zm0 10.2a4 4 0 1 1 0-8.1 4 4 0 0 1 0 8.1zm6.4-11.4a1.5 1.5 0 1 1-3.1 0 1.5 1.5 0 0 1 3.1 0z"/>
</svg>
